<svg width="2317" height="828" viewBox="0 0 2317 828" fill="none" xmlns="http://www.w3.org/2000/svg">
<path fill-rule="evenodd" clip-rule="evenodd" d="M218.66 0V68.64H146.1V137.28H73.54V207.88H0V442.23C0 442.23 128.45 559.89 147.08 577.54V826.6H462.81V578.53C481.44 561.86 609.89 442.24 609.89 442.24V207.89H536.35V138.27H462.81V68.65H389.27V0H218.66Z" fill="white"/>
<path d="M335.34 771.68H273.57V399.08H335.34V771.68Z" fill="#FFD100"/>
<path d="M261.8 771.68H200.03V462.81H261.8V771.68Z" fill="#FFD100"/>
<path d="M408.88 771.68H347.11V462.81H408.88V771.68Z" fill="#FFD100"/>
<path d="M335.34 386.33H273.57V53.9301H335.34V386.33Z" fill="#211F20"/>
<path d="M200.03 453.99H261.8V123.55H200.03V453.99Z" fill="#211F20"/>
<path d="M188.26 544.2L126.49 483.4V192.18H188.26V544.2Z" fill="#211F20"/>
<path d="M114.72 475.56L52.9502 420.65V261.8H114.72V475.56Z" fill="#211F20"/>
<path d="M554.98 420.65L493.21 475.56V261.8H554.98V420.65Z" fill="#211F20"/>
<path d="M419.67 544.2L482.42 483.4V192.18H419.67V544.2Z" fill="#211F20"/>
<path d="M408.88 453.99H347.11V123.55H408.88V453.99Z" fill="#211F20"/>
<path fill-rule="evenodd" clip-rule="evenodd" d="M952.1 772.66C973.67 772.66 988.38 768.73 996.22 760.89C1004.07 753.04 1007.99 742.26 1007.99 727.55V659.89C1007.99 645.18 1004.06 633.42 996.22 625.57C988.38 617.72 973.67 613.8 952.1 613.8H882.48C861.89 613.8 847.18 617.73 839.34 625.57C830.51 633.42 826.59 644.2 826.59 659.89V727.55C826.59 742.26 830.52 754.03 839.34 761.87C847.18 769.72 861.89 772.66 882.48 772.66H952.1ZM955.04 655.97C957.98 660.87 959.94 666.76 959.94 675.58V711.86C959.94 720.68 957.98 726.57 954.06 730.49C951.12 734.41 943.28 737.35 930.53 737.35H904.06C892.3 737.35 884.45 734.41 880.53 730.49C876.61 725.59 874.65 719.7 874.65 711.86V675.58C874.65 667.74 876.61 660.87 880.53 656.95C884.45 653.03 892.29 650.09 904.06 650.09H930.53C943.27 650.09 951.12 652.05 955.04 655.97Z" fill="white"/>
<path d="M1160.96 772.66C1182.53 772.66 1197.24 768.73 1205.08 760.89C1212.93 753.04 1215.87 742.26 1215.87 727.55V711.86H1168.8C1168.8 720.68 1166.84 726.57 1162.92 730.49C1159.98 734.41 1152.14 737.35 1139.39 737.35H1112.92C1101.16 737.35 1093.31 734.41 1089.39 730.49C1085.47 725.59 1083.51 719.7 1083.51 711.86V675.58C1083.51 667.74 1085.47 660.87 1089.39 656.95C1093.31 653.03 1101.15 650.09 1112.92 650.09H1139.39C1152.13 650.09 1159.98 652.05 1162.92 655.97C1166.84 660.87 1168.8 666.76 1168.8 675.58H1215.87V659.89C1215.87 645.18 1212.92 633.42 1205.08 625.57C1197.24 617.72 1182.53 613.8 1160.96 613.8H1091.34C1070.75 613.8 1056.04 617.73 1048.2 625.57C1039.37 633.42 1035.45 644.2 1035.45 659.89V727.55C1035.45 742.26 1039.38 754.03 1048.2 761.87C1056.04 769.72 1070.75 772.66 1091.34 772.66H1160.96Z" fill="white"/>
<path d="M1291.36 772.66H1244.3V613.81H1291.36V674.61H1376.67V613.81H1424.71V772.66H1376.67V710.89H1291.36V772.66Z" fill="white"/>
<path d="M1500.21 710.89H1513.94L1513.93 710.87H1633.56V674.59H1500.21C1500.21 667.73 1502.17 660.86 1506.09 656.94C1510.01 653.02 1517.85 650.08 1529.62 650.08H1633.56V613.8H1509.03C1487.46 613.8 1472.76 617.72 1464.91 625.57C1457.06 633.42 1453.14 644.2 1453.14 659.89V727.55C1453.14 742.26 1457.07 754.02 1464.91 761.87C1472.75 769.72 1487.46 772.66 1509.03 772.66H1633.56V737.36H1529.62C1517.86 737.36 1510.01 734.42 1506.09 730.5C1502.17 725.6 1500.21 719.71 1500.21 710.89Z" fill="white"/>
<path d="M1999.31 650.09H1934.59V613.81H2115.01V650.09H2047.35V772.66H1999.31V650.09Z" fill="white"/>
<path fill-rule="evenodd" clip-rule="evenodd" d="M1818.89 642.25H1892.43C1892.43 642.25 1935.57 643.23 1935.57 692.26C1935.57 741.29 1891.45 741.29 1891.45 741.29H1818.89V772.67H1771.82V741.29H1697.3C1697.3 741.29 1654.16 740.31 1654.16 692.26C1654.16 644.21 1696.32 642.25 1696.32 642.25H1771.82V613.81H1818.89V642.25ZM1818.89 709.91H1866.94C1866.94 709.91 1883.61 710.89 1883.61 694.22C1883.61 673.63 1866.94 676.57 1866.94 676.57H1818.89V709.91ZM1723.78 676.57C1723.78 676.57 1707.11 673.63 1707.11 694.22C1707.11 710.89 1723.78 709.91 1723.78 709.91H1771.83V676.57H1723.78Z" fill="white"/>
<path fill-rule="evenodd" clip-rule="evenodd" d="M787.37 625.58C779.53 617.74 764.82 613.81 744.23 613.81H618.72V772.66H665.79V718.73H744.23C764.82 718.73 779.53 714.81 787.37 706.96C795.21 699.11 799.14 687.35 799.14 672.64V659.89C799.14 645.18 795.22 633.42 787.37 625.57V625.58ZM736.38 682.45H665.78V650.09H736.38C744.22 650.09 752.07 657.93 752.07 666.76C752.07 674.6 744.23 682.45 736.38 682.45Z" fill="white"/>
<path fill-rule="evenodd" clip-rule="evenodd" d="M2317 714.81V727.55C2317 742.26 2313.07 753.04 2305.23 760.89C2297.39 768.74 2282.68 772.66 2261.11 772.66H2135.6V613.81H2183.65V668.72H2261.11C2282.68 668.72 2297.38 672.64 2305.23 680.49C2313.08 688.34 2317 700.1 2317 714.81ZM2253.26 737.37C2262.09 737.37 2269.93 729.52 2269.93 720.7C2269.93 711.87 2262.08 705.01 2253.26 705.01H2183.64V737.37H2253.26Z" fill="white"/>
</svg>
