<svg width="828" height="828" viewBox="0 0 828 828" fill="none" xmlns="http://www.w3.org/2000/svg">
<path fill-rule="evenodd" clip-rule="evenodd" d="M327.66 0V68.64H255.1V137.28H182.54V207.88H109V442.23C109 442.23 237.45 559.89 256.08 577.54V826.6H571.81V578.53C590.44 561.86 718.89 442.24 718.89 442.24V207.89H645.35V138.27H571.81V68.65H498.27V0H327.66Z" fill="white"/>
<path d="M444.34 771.68H382.57V399.08H444.34V771.68Z" fill="#FFD100"/>
<path d="M370.8 771.68H309.03V462.81H370.8V771.68Z" fill="#FFD100"/>
<path d="M517.88 771.68H456.11V462.81H517.88V771.68Z" fill="#FFD100"/>
<path d="M444.34 386.33H382.57V53.9302H444.34V386.33Z" fill="#211F20"/>
<path d="M309.03 453.99H370.8V123.55H309.03V453.99Z" fill="#211F20"/>
<path d="M297.26 544.2L235.49 483.4V192.18H297.26V544.2Z" fill="#211F20"/>
<path d="M223.72 475.56L161.95 420.65V261.8H223.72V475.56Z" fill="#211F20"/>
<path d="M663.98 420.65L602.21 475.56V261.8H663.98V420.65Z" fill="#211F20"/>
<path d="M528.67 544.2L591.42 483.4V192.18H528.67V544.2Z" fill="#211F20"/>
<path d="M517.88 453.99H456.11V123.55H517.88V453.99Z" fill="#211F20"/>
</svg>
