<svg width="391" height="230" viewBox="0 0 391 230" fill="none" xmlns="http://www.w3.org/2000/svg">
<g clip-path="url(#clip0_506_162)">
<path fill-rule="evenodd" clip-rule="evenodd" d="M188.29 77.8999H202.74V164.45H188.29V77.8999ZM205.62 92.3299H220V164.45H205.6V92.3299H205.62ZM171.01 92.3299H185.41V164.45H171V92.3299H171.01Z" fill="#FFD300"/>
<path fill-rule="evenodd" clip-rule="evenodd" d="M223 31.68H237.44V100.93L223 115.37V31.68ZM220.11 89.44H205.62V14.44H220.06V89.44H220.11ZM188.29 0H202.74V75H188.29V0ZM185.41 89.44H171V14.44H185.44V89.44H185.41ZM153.68 31.68H168.12V115.44L153.68 101V31.68ZM136.35 49H150.79V98.1L136.35 83.67V49ZM240.28 49H254.68V83.66L240.28 98V49Z" fill="#1D1D1B"/>
<path d="M78.67 207.43C78.785 205.866 78.3616 204.31 77.47 203.02C76.62 202.13 74.76 201.64 71.86 201.64H65.7C63.06 201.64 61.27 202.16 60.37 203.17C59.4082 204.375 58.9209 205.89 59 207.43V215.74C58.9122 217.295 59.396 218.827 60.36 220.05C61.26 221.05 63.05 221.58 65.69 221.58H71.85C74.75 221.58 76.55 221.07 77.38 220.2C78.2676 218.916 78.7166 217.38 78.66 215.82V207.43H78.67ZM87 227.15C85.16 228.97 81.85 229.88 76.94 229.88H60.94C56.1 229.88 52.77 229.02 50.94 227.25C49.11 225.48 48 222.86 48 219.36V203.85C48 200.3 48.94 197.72 50.85 195.95C52.76 194.18 56.05 193.33 60.85 193.33H76.85C81.76 193.33 85.07 194.26 86.91 196.04C88.75 197.82 89.57 200.45 89.57 203.85V219.36C89.57 222.76 88.7 225.36 86.91 227.15H87Z" fill="#1D1D1B"/>
<path d="M135 227.15C133.22 228.97 129.85 229.88 125 229.88H109C104.16 229.88 100.78 229.02 98.9 227.25C97.02 225.48 96.1 222.86 96.1 219.36V203.85C96.1 200.3 97.02 197.72 98.9 195.95C100.78 194.18 104.16 193.33 109 193.33H125C129.84 193.33 133.21 194.26 135 196.04C136.79 197.82 137.71 200.45 137.71 203.85V207.43H126.75C126.85 205.857 126.402 204.299 125.48 203.02C124.64 202.13 122.78 201.64 119.88 201.64H113.77C111.08 201.64 109.3 202.16 108.43 203.17C107.45 204.365 106.964 205.889 107.07 207.43V215.74C106.958 217.298 107.444 218.839 108.43 220.05C109.3 221.05 111.08 221.58 113.77 221.58H119.88C122.78 221.58 124.64 221.07 125.48 220.2C126.408 218.906 126.857 217.329 126.75 215.74H137.69V219.36C137.69 222.76 136.78 225.36 134.98 227.15H135Z" fill="#1D1D1B"/>
<path d="M155.01 229.88H144.15L144.06 219.36V203.85L144.15 193.34H155.01V207.32H174.69V193.34H185.72V203.85V219.36V229.88H174.69V215.63H155.01V229.88Z" fill="#1D1D1B"/>
<path d="M206.17 215.63H203.09C203.007 217.221 203.497 218.789 204.47 220.05C205.4 221.05 207.17 221.58 209.82 221.58H233.75V229.88H205C200.17 229.88 196.83 229.02 194.9 227.26C192.97 225.5 192.11 222.86 192.11 219.36V203.85C192.11 200.3 193.04 197.72 194.9 195.95C196.76 194.18 200.17 193.33 205 193.33H233.76V201.64H209.82C207.17 201.64 205.4 202.16 204.47 203.16C203.525 204.336 203.035 205.813 203.09 207.32H233.75V215.63H206.17Z" fill="#1D1D1B"/>
<path d="M317.98 201.64H302.94V193.34H315.59H331.63H344.57V201.64H328.89V229.88H317.98V201.64Z" fill="#1D1D1B"/>
<path d="M250.69 211.72C250.69 207.15 254.5 207.65 254.5 207.65H265.5V215.38H254.41C253.919 215.41 253.427 215.336 252.966 215.164C252.505 214.991 252.086 214.724 251.735 214.379C251.384 214.033 251.11 213.618 250.93 213.16C250.75 212.702 250.668 212.212 250.69 211.72ZM287.5 215.38H276.38V207.65H287.38C287.38 207.65 291.19 207.15 291.19 211.72C291.212 212.213 291.13 212.704 290.95 213.163C290.769 213.622 290.494 214.037 290.142 214.383C289.79 214.728 289.369 214.995 288.907 215.167C288.445 215.339 287.952 215.411 287.46 215.38H287.5ZM293.29 199.94H276.38V193.33H265.61V199.94H248.24C248.24 199.94 238.4 200.26 238.4 211.4C238.4 222.54 248.49 222.65 248.49 222.65H265.61V229.88H276.38V222.65H293C293 222.65 303.15 222.58 303.15 211.4C303.15 200.22 293.26 199.94 293.26 199.94H293.29Z" fill="#1D1D1B"/>
<path d="M27.08 209H10.9V201.69H27.08C28.0163 201.739 28.8981 202.145 29.5435 202.826C30.1889 203.506 30.5488 204.407 30.5488 205.345C30.5488 206.283 30.1889 207.184 29.5435 207.865C28.8981 208.545 28.0163 208.951 27.08 209ZM38.9 196C37.11 194.22 33.78 193.29 28.9 193.29H0V229.84H10.9V217.26H28.9C33.79 217.26 37.12 216.38 38.9 214.55C40.68 212.72 41.61 210.13 41.61 206.74V203.85C41.61 200.44 40.68 197.85 38.9 196.04V196Z" fill="#1D1D1B"/>
<path d="M380.15 217.91C380.139 218.879 379.749 219.805 379.063 220.49C378.377 221.174 377.449 221.562 376.48 221.57H360.36V214.22H376.48C377.454 214.228 378.386 214.62 379.073 215.311C379.76 216.001 380.147 216.935 380.15 217.91ZM391 219.36V216.47C391 213.07 390.13 210.47 388.36 208.62C386.59 206.77 383.19 205.95 378.36 205.95H360.36V193.34H349.43V229.88H378.33C383.19 229.88 386.51 228.97 388.33 227.16C390.15 225.35 390.97 222.75 390.97 219.36H391Z" fill="#1D1D1B"/>
</g>
<defs>
<clipPath id="clip0_506_162">
<rect width="391" height="230" fill="white"/>
</clipPath>
</defs>
</svg>
